<?xml version="1.0" standalone="no"?><!DOCTYPE svg PUBLIC "-//W3C//DTD SVG 1.1//EN" "http://www.w3.org/Graphics/SVG/1.1/DTD/svg11.dtd"><svg t="1606295993523" class="icon" viewBox="0 0 1024 1024" version="1.1" xmlns="http://www.w3.org/2000/svg" p-id="6781" xmlns:xlink="http://www.w3.org/1999/xlink" width="48" height="48"><defs><style type="text/css"></style></defs><path d="M351.46752 594.20672H223.66208a31.88736 31.88736 0 0 1-31.9488-31.9488 31.88736 31.88736 0 0 1 31.9488-31.9488h95.85664v-95.85664a31.88736 31.88736 0 0 1 31.9488-31.9488 31.88736 31.88736 0 0 1 31.9488 31.9488v127.80544a31.88736 31.88736 0 0 1-31.9488 31.9488z m349.75744 90.86976c-61.8496 0-113.55136 43.29472-127.11936 101.0176H450.41664c-13.568-57.89696-65.28-101.0176-127.11936-101.0176-72.1408 0-130.89792 58.75712-130.89792 130.89792 0 72.32512 58.74688 131.072 130.89792 131.072 60.29312 0 110.62272-41.23648 125.7472-96.88064h126.2592c15.11424 55.6544 65.44384 96.88064 125.91104 96.88064 72.15104 0 130.89792-58.74688 130.89792-130.89792 0.01024-72.1408-58.74688-131.072-130.88768-131.072zM323.29728 882.97472c-36.93568 0-66.99008-30.06464-66.99008-67.1744a67.072 67.072 0 0 1 66.99008-66.99008 67.072 67.072 0 0 1 66.99008 66.99008c0 37.10976-30.0544 67.1744-66.99008 67.1744z m377.92768-0.17408a67.08224 67.08224 0 0 1-67.00032-66.99008 67.08224 67.08224 0 0 1 67.00032-67.00032 67.08224 67.08224 0 0 1 66.99008 67.00032 67.08224 67.08224 0 0 1-66.99008 66.99008z m161.64864-767.86688H399.22688c-43.97056 0-79.70816 35.7376-79.70816 79.70816v92.416L125.2352 384.63488a29.2864 29.2864 0 0 0-3.95264 2.4064c-36.07552 25.42592-56.00256 64.93184-56.00256 111.3088v321.5872a31.88736 31.88736 0 0 0 31.9488 31.9488 31.88736 31.88736 0 0 0 31.9488-31.9488V498.35008c0-24.90368 9.10336-44.4928 26.97216-57.89696l209.74592-105.12384c1.37216-0.68608 2.4064-2.05824 3.60448-2.9184 1.8944-1.37216 3.77856-2.57024 5.3248-4.11648a31.744 31.744 0 0 0 3.4304-4.98688c1.03424-1.72032 2.23232-3.25632 2.9184-5.3248 0.86016-2.23232 1.03424-4.47488 1.37216-6.69696 0.17408-1.54624 0.84992-2.9184 0.84992-4.47488V194.63168a15.872 15.872 0 0 1 15.81056-15.80032h463.64672c17.52064 0 31.9488 14.60224 31.9488 32.4608v606.5664a31.8976 31.8976 0 0 0 31.95904 31.9488 31.88736 31.88736 0 0 0 31.9488-31.9488V211.29216c0.01024-53.07392-43.1104-96.3584-95.83616-96.3584z m0 0" p-id="6782" fill="#515151"></path></svg>