<?xml version="1.0" standalone="no"?><!DOCTYPE svg PUBLIC "-//W3C//DTD SVG 1.1//EN" "http://www.w3.org/Graphics/SVG/1.1/DTD/svg11.dtd"><svg t="1606296058586" class="icon" viewBox="0 0 1024 1024" version="1.1" xmlns="http://www.w3.org/2000/svg" p-id="7608" xmlns:xlink="http://www.w3.org/1999/xlink" width="48" height="48"><defs><style type="text/css"></style></defs><path d="M935.424 766.4128a33.28 33.28 0 0 0-33.4848 33.024v43.52a103.1168 103.1168 0 0 1-31.232 73.8816 106.8544 106.8544 0 0 1-74.9568 30.72H216.5248a107.9808 107.9808 0 0 1-41.472-8.2432 106.0864 106.0864 0 0 1-56.32-55.7568 102.4 102.4 0 0 1-8.3456-40.6016V201.0112a103.3728 103.3728 0 0 1 31.1808-73.8816 106.9568 106.9568 0 0 1 75.0592-30.72H795.648a108.032 108.032 0 0 1 41.472 8.2944 103.936 103.936 0 0 1 33.6896 22.4768 104.0896 104.0896 0 0 1 31.1296 73.8816v43.4176a33.536 33.536 0 0 0 67.0208 0v-43.3664a169.2672 169.2672 0 0 0-50.6368-120.4736 171.6736 171.6736 0 0 0-55.1936-36.7616A175.36 175.36 0 0 0 795.648 30.72H216.5248a174.592 174.592 0 0 0-122.368 49.8688 168.6528 168.6528 0 0 0-51.2 120.6784v641.5872a166.8096 166.8096 0 0 0 13.6192 66.2528 168.6016 168.6016 0 0 0 37.0176 54.2208 171.264 171.264 0 0 0 55.1936 36.7104A174.6432 174.6432 0 0 0 216.5248 1013.76h579.2256a174.592 174.592 0 0 0 122.2656-49.8688 168.6528 168.6528 0 0 0 50.944-120.6784v-43.52a33.28 33.28 0 0 0-33.536-33.28z m-118.9376-120.4736a34.3552 34.3552 0 0 0 48.0256 0l101.2224-99.6864a33.0752 33.0752 0 0 0-1.1776-49.8176l-100.0448-98.4064a34.2528 34.2528 0 0 0-48.0256 0 33.024 33.024 0 0 0 0 47.2576l43.6736 43.2128h-336.64a33.4848 33.4848 0 1 0 0 66.9696h336.896l-43.9296 43.2128a33.024 33.024 0 0 0 0 47.2576z" fill="#515151" p-id="7609"></path></svg>