<?xml version="1.0" standalone="no"?><!DOCTYPE svg PUBLIC "-//W3C//DTD SVG 1.1//EN" "http://www.w3.org/Graphics/SVG/1.1/DTD/svg11.dtd"><svg t="1606295725441" class="icon" viewBox="0 0 1024 1024" version="1.1" xmlns="http://www.w3.org/2000/svg" p-id="4720" xmlns:xlink="http://www.w3.org/1999/xlink" width="48" height="48"><defs><style type="text/css"></style></defs><path d="M403.5 671.4l-133.6 0.3c-11.5 0-22.1 6.1-27.9 16.1-5.7 10-5.7 22.2 0 32.2 5.8 10 16.4 16.1 27.9 16.1l133.6-0.3c11.5 0 22.1-6.1 27.9-16.1 5.7-10 5.7-22.2 0-32.2-5.8-10-16.4-16.1-27.9-16.1zM274.7 319.1l0.2 0.5h157.9c9.4 0.9 18.7-2.2 25.7-8.4 7-6.3 11.1-15.1 11.3-24.5-0.4-9.2-4.6-17.9-11.6-23.9-7-6.1-16.1-9-25.3-8.1H274.7c-12.6-1.8-25.1 3.9-32 14.6-6.9 10.7-6.9 24.5 0 35.2 6.9 10.7 19.4 16.4 32 14.6zM674.4 515.6c6.1-6.1 9.4-14.5 9.1-23.1 0.3-8.6-3-17-9.1-23.1-6.1-6.1-14.5-9.4-23.1-9.1l-381.5 0.8c-8.6-0.2-17 3.1-23.1 9.2-6 6.2-9.3 14.5-9.1 23.2-0.2 8.6 3.1 16.9 9.2 23 6.1 6.1 14.4 9.4 23.1 9.1l381.6-0.8c8.5 0.2 16.8-3.1 22.9-9.2z" p-id="4721" fill="#515151"></path><path d="M504.2 894.8h-0.2l-335.6 0.5c-13.8 0-25-11.1-25-24.9l-1.5-715.7c0-6.6 2.7-13 7.4-17.6 4.6-4.7 11-7.3 17.6-7.3l610.4-1.3c13.8 0 25 11.2 25 25l0.7 347.4c0.7 17.3 15 30.9 32.2 30.9 17.3 0 31.5-13.6 32.2-30.9l-0.8-347.5C866.4 104 826.4 64 777 63.9l-610.3 1.4c-48.8 0.2-88.3 39.5-89.1 88.1v73.3L79 870.4c0.2 49.3 40.3 89.3 89.6 89.3l335.6-0.5c17.3-0.7 30.9-15 30.9-32.2 0-17.3-13.6-31.5-30.9-32.2zM912.9 876.1c-16.8-14.4-56.4-16.8-80-17 0 0-28.3 84.8-70.7 84.8s-70.7-84.8-70.7-84.8c-23.6 0.2-63.2 2.6-80 17-22.9 19.7-33.7 81.9-33.7 81.9h368.7c0.1 0-10.7-62.2-33.6-81.9z" p-id="4722" fill="#515151"></path><path d="M761.9 576.9c-36.9 0-83.2 23.6-98.5 84.7-14.1 56.5-6.6 92.4-14.1 107.4-14.1 28.2-28.6 0-28.6 0s-11.8 83 106 42.4c-0.9-4.8-3-9.5-6.8-14-13.3-15.2-20.6-37.4-24.4-64.8 0.2-0.1 0.4-0.1 0.5-0.2 2.9-1.1 5.9-2.4 8.9-3.7 74.6-33.3 86-88.6 86-88.6s25.5 30 39.5 61.9c0.4 1 0.9 2 1.3 3 0 0.1 0.1 0.2 0.1 0.3-2.4 40.2-9.7 72.1-27.2 92.2-3.9 4.5-6 9.3-6.9 14.2 117.1 40 105.4-42.7 105.4-42.7s-13.8 28.2-27.9 0c-7.5-15.1 0-51-14.8-107.4-15.9-60.9-61.5-84.7-98.5-84.7z" p-id="4723" fill="#515151"></path></svg>